mtllib trivial.mtl

#---------------------------------------------------------------------------
v 0 0 0
v 2.3268289183799712E-17 -0.38 0
v 0.5877852522924731 -0.8090169943749475 0
v 0.36140147619215834 -0.11742645786248002 0
v 0.9510565162951535 0.3090169943749474 0
v 0.2233583958711398 0.30742645786248 0
v 6.123233995736766E-17 1.0 0
v -0.22335839587113976 0.30742645786248 0
v -0.9510565162951535 0.3090169943749475 0
v -0.36140147619215834 -0.11742645786248014 0
v -0.5877852522924732 -0.8090169943749473 0

#---------------------------------------------------------------------------
vt 0 0 0
vn 0 0 1

#---------------------------------------------------------------------------
o group1
usemtl testWhite

# Normal triangle
f 1/1/1 2/1/1 3/1/1 4/1/1 5/1/1 6/1/1 7/1/1 8/1/1 9/1/1 10/1/1 11/1/1 2/1/1

#---------------------------------------------------------------------------
