ISO-10303-21;
HEADER;
FILE_DESCRIPTION(('Polyhedral B-Rep exported from VITRAL kernel'),'2;1');
FILE_NAME('solidA','2026-05-23T21:28:38',('VITRAL'),('VITRAL'),'VITRAL stepCad writer','VITRAL','');
FILE_SCHEMA(('AP242_MANAGED_MODEL_BASED_3D_ENGINEERING_MIM_LF{1 0 10303 442 3 1 4}'));
ENDSEC;
DATA;
#1=( LENGTH_UNIT() NAMED_UNIT(*) SI_UNIT($,.METRE.) );
#2=( NAMED_UNIT(*) PLANE_ANGLE_UNIT() SI_UNIT($,.RADIAN.) );
#3=( NAMED_UNIT(*) SI_UNIT($,.STERADIAN.) SOLID_ANGLE_UNIT() );
#4=UNCERTAINTY_MEASURE_WITH_UNIT(LENGTH_MEASURE(9.999999999999999E-06),#1,'DISTANCE_ACCURACY_VALUE','Tolerance derived from PolyhedralBoundedSolid BIG_EPSILON');
#5=( GEOMETRIC_REPRESENTATION_CONTEXT(3) GLOBAL_UNCERTAINTY_ASSIGNED_CONTEXT((#4)) GLOBAL_UNIT_ASSIGNED_CONTEXT((#1,#2,#3)) REPRESENTATION_CONTEXT('Vitral','3D') );
#6=CARTESIAN_POINT('',(0.0,0.0,0.0));
#7=DIRECTION('',(0.0,0.0,1.000000000000000E+00));
#8=DIRECTION('',(1.000000000000000E+00,0.0,0.0));
#9=AXIS2_PLACEMENT_3D('',#6,#7,#8);
#10=CARTESIAN_POINT('',(1.500000000000000E-01,0.0,0.0));
#11=VERTEX_POINT('',#10);
#12=CARTESIAN_POINT('',(1.467221401000000E-01,3.118675360000000E-02,0.0));
#13=VERTEX_POINT('',#12);
#14=CARTESIAN_POINT('',(1.370318186000000E-01,6.101049650000000E-02,0.0));
#15=VERTEX_POINT('',#14);
#16=CARTESIAN_POINT('',(1.213525492000000E-01,8.816778780000000E-02,0.0));
#17=VERTEX_POINT('',#16);
#18=CARTESIAN_POINT('',(1.003695910000000E-01,1.114717238000000E-01,0.0));
#19=VERTEX_POINT('',#18);
#20=CARTESIAN_POINT('',(7.500000000000000E-02,1.299038106000000E-01,0.0));
#21=VERTEX_POINT('',#20);
#22=CARTESIAN_POINT('',(4.635254920000000E-02,1.426584774000000E-01,0.0));
#23=VERTEX_POINT('',#22);
#24=CARTESIAN_POINT('',(1.567926950000000E-02,1.491782843000000E-01,0.0));
#25=VERTEX_POINT('',#24);
#26=CARTESIAN_POINT('',(-1.567926950000000E-02,1.491782843000000E-01,0.0));
#27=VERTEX_POINT('',#26);
#28=CARTESIAN_POINT('',(-4.635254920000000E-02,1.426584774000000E-01,0.0));
#29=VERTEX_POINT('',#28);
#30=CARTESIAN_POINT('',(-7.500000000000000E-02,1.299038106000000E-01,0.0));
#31=VERTEX_POINT('',#30);
#32=CARTESIAN_POINT('',(-1.003695910000000E-01,1.114717238000000E-01,0.0));
#33=VERTEX_POINT('',#32);
#34=CARTESIAN_POINT('',(-1.213525492000000E-01,8.816778780000000E-02,0.0));
#35=VERTEX_POINT('',#34);
#36=CARTESIAN_POINT('',(-1.370318186000000E-01,6.101049650000000E-02,0.0));
#37=VERTEX_POINT('',#36);
#38=CARTESIAN_POINT('',(-1.467221401000000E-01,3.118675360000000E-02,0.0));
#39=VERTEX_POINT('',#38);
#40=CARTESIAN_POINT('',(-1.500000000000000E-01,0.0,0.0));
#41=VERTEX_POINT('',#40);
#42=CARTESIAN_POINT('',(-1.467221401000000E-01,-3.118675360000000E-02,0.0));
#43=VERTEX_POINT('',#42);
#44=CARTESIAN_POINT('',(-1.370318186000000E-01,-6.101049650000000E-02,0.0));
#45=VERTEX_POINT('',#44);
#46=CARTESIAN_POINT('',(-1.213525492000000E-01,-8.816778780000000E-02,0.0));
#47=VERTEX_POINT('',#46);
#48=CARTESIAN_POINT('',(-1.003695910000000E-01,-1.114717238000000E-01,0.0));
#49=VERTEX_POINT('',#48);
#50=CARTESIAN_POINT('',(-7.500000000000000E-02,-1.299038106000000E-01,0.0));
#51=VERTEX_POINT('',#50);
#52=CARTESIAN_POINT('',(-4.635254920000000E-02,-1.426584774000000E-01,0.0));
#53=VERTEX_POINT('',#52);
#54=CARTESIAN_POINT('',(-1.567926950000000E-02,-1.491782843000000E-01,0.0));
#55=VERTEX_POINT('',#54);
#56=CARTESIAN_POINT('',(1.567926950000000E-02,-1.491782843000000E-01,0.0));
#57=VERTEX_POINT('',#56);
#58=CARTESIAN_POINT('',(4.635254920000000E-02,-1.426584774000000E-01,0.0));
#59=VERTEX_POINT('',#58);
#60=CARTESIAN_POINT('',(7.500000000000000E-02,-1.299038106000000E-01,0.0));
#61=VERTEX_POINT('',#60);
#62=CARTESIAN_POINT('',(1.003695910000000E-01,-1.114717238000000E-01,0.0));
#63=VERTEX_POINT('',#62);
#64=CARTESIAN_POINT('',(1.213525492000000E-01,-8.816778780000000E-02,0.0));
#65=VERTEX_POINT('',#64);
#66=CARTESIAN_POINT('',(1.370318186000000E-01,-6.101049650000000E-02,0.0));
#67=VERTEX_POINT('',#66);
#68=CARTESIAN_POINT('',(1.467221401000000E-01,-3.118675360000000E-02,0.0));
#69=VERTEX_POINT('',#68);
#70=CARTESIAN_POINT('',(1.500000000000000E-01,0.0,5.500000000000000E-01));
#71=VERTEX_POINT('',#70);
#72=CARTESIAN_POINT('',(1.467221401000000E-01,3.118675360000000E-02,5.500000000000000E-01));
#73=VERTEX_POINT('',#72);
#74=CARTESIAN_POINT('',(1.370318186000000E-01,6.101049650000000E-02,5.500000000000000E-01));
#75=VERTEX_POINT('',#74);
#76=CARTESIAN_POINT('',(1.213525492000000E-01,8.816778780000000E-02,5.500000000000000E-01));
#77=VERTEX_POINT('',#76);
#78=CARTESIAN_POINT('',(1.003695910000000E-01,1.114717238000000E-01,5.500000000000000E-01));
#79=VERTEX_POINT('',#78);
#80=CARTESIAN_POINT('',(7.500000000000000E-02,1.299038106000000E-01,5.500000000000000E-01));
#81=VERTEX_POINT('',#80);
#82=CARTESIAN_POINT('',(4.635254920000000E-02,1.426584774000000E-01,5.500000000000000E-01));
#83=VERTEX_POINT('',#82);
#84=CARTESIAN_POINT('',(1.567926950000000E-02,1.491782843000000E-01,5.500000000000000E-01));
#85=VERTEX_POINT('',#84);
#86=CARTESIAN_POINT('',(-1.567926950000000E-02,1.491782843000000E-01,5.500000000000000E-01));
#87=VERTEX_POINT('',#86);
#88=CARTESIAN_POINT('',(-4.635254920000000E-02,1.426584774000000E-01,5.500000000000000E-01));
#89=VERTEX_POINT('',#88);
#90=CARTESIAN_POINT('',(-7.500000000000000E-02,1.299038106000000E-01,5.500000000000000E-01));
#91=VERTEX_POINT('',#90);
#92=CARTESIAN_POINT('',(-1.003695910000000E-01,1.114717238000000E-01,5.500000000000000E-01));
#93=VERTEX_POINT('',#92);
#94=CARTESIAN_POINT('',(-1.213525492000000E-01,8.816778780000000E-02,5.500000000000000E-01));
#95=VERTEX_POINT('',#94);
#96=CARTESIAN_POINT('',(-1.370318186000000E-01,6.101049650000000E-02,5.500000000000000E-01));
#97=VERTEX_POINT('',#96);
#98=CARTESIAN_POINT('',(-1.467221401000000E-01,3.118675360000000E-02,5.500000000000000E-01));
#99=VERTEX_POINT('',#98);
#100=CARTESIAN_POINT('',(-1.500000000000000E-01,0.0,5.500000000000000E-01));
#101=VERTEX_POINT('',#100);
#102=CARTESIAN_POINT('',(-1.467221401000000E-01,-3.118675360000000E-02,5.500000000000000E-01));
#103=VERTEX_POINT('',#102);
#104=CARTESIAN_POINT('',(-1.370318186000000E-01,-6.101049650000000E-02,5.500000000000000E-01));
#105=VERTEX_POINT('',#104);
#106=CARTESIAN_POINT('',(-1.213525492000000E-01,-8.816778780000000E-02,5.500000000000000E-01));
#107=VERTEX_POINT('',#106);
#108=CARTESIAN_POINT('',(-1.003695910000000E-01,-1.114717238000000E-01,5.500000000000000E-01));
#109=VERTEX_POINT('',#108);
#110=CARTESIAN_POINT('',(-7.500000000000000E-02,-1.299038106000000E-01,5.500000000000000E-01));
#111=VERTEX_POINT('',#110);
#112=CARTESIAN_POINT('',(-4.635254920000000E-02,-1.426584774000000E-01,5.500000000000000E-01));
#113=VERTEX_POINT('',#112);
#114=CARTESIAN_POINT('',(-1.567926950000000E-02,-1.491782843000000E-01,5.500000000000000E-01));
#115=VERTEX_POINT('',#114);
#116=CARTESIAN_POINT('',(1.567926950000000E-02,-1.491782843000000E-01,5.500000000000000E-01));
#117=VERTEX_POINT('',#116);
#118=CARTESIAN_POINT('',(4.635254920000000E-02,-1.426584774000000E-01,5.500000000000000E-01));
#119=VERTEX_POINT('',#118);
#120=CARTESIAN_POINT('',(7.500000000000000E-02,-1.299038106000000E-01,5.500000000000000E-01));
#121=VERTEX_POINT('',#120);
#122=CARTESIAN_POINT('',(1.003695910000000E-01,-1.114717238000000E-01,5.500000000000000E-01));
#123=VERTEX_POINT('',#122);
#124=CARTESIAN_POINT('',(1.213525492000000E-01,-8.816778780000000E-02,5.500000000000000E-01));
#125=VERTEX_POINT('',#124);
#126=CARTESIAN_POINT('',(1.370318186000000E-01,-6.101049650000000E-02,5.500000000000000E-01));
#127=VERTEX_POINT('',#126);
#128=CARTESIAN_POINT('',(1.467221401000000E-01,-3.118675360000000E-02,5.500000000000000E-01));
#129=VERTEX_POINT('',#128);
#130=DIRECTION('',(1.045284636604281E-01,-9.945218953269911E-01,0.0));
#131=VECTOR('',#130,3.135853895880898E-02);
#132=LINE('',#12,#131);
#133=EDGE_CURVE('',#13,#11,#132,.T.);
#134=DIRECTION('',(3.090169948480978E-01,-9.510565161414177E-01,0.0));
#135=VECTOR('',#134,3.135853904981326E-02);
#136=LINE('',#14,#135);
#137=EDGE_CURVE('',#15,#13,#136,.T.);
#138=DIRECTION('',(4.999999989831456E-01,-8.660254043715199E-01,0.0));
#139=VECTOR('',#138,3.135853886377411E-02);
#140=LINE('',#16,#139);
#141=EDGE_CURVE('',#17,#15,#140,.T.);
#142=DIRECTION('',(6.691306059633435E-01,-7.431448258335173E-01,0.0));
#143=VECTOR('',#142,3.135853899522496E-02);
#144=LINE('',#18,#143);
#145=EDGE_CURVE('',#19,#17,#144,.T.);
#146=DIRECTION('',(8.090169940656282E-01,-5.877852527182146E-01,0.0));
#147=VECTOR('',#146,3.135853904935648E-02);
#148=LINE('',#20,#147);
#149=EDGE_CURVE('',#21,#19,#148,.T.);
#150=DIRECTION('',(9.135454583194839E-01,-4.067366415554963E-01,0.0));
#151=VECTOR('',#150,3.135853890916225E-02);
#152=LINE('',#22,#151);
#153=EDGE_CURVE('',#23,#21,#152,.T.);
#154=DIRECTION('',(9.781476005274117E-01,-2.079116917887670E-01,0.0));
#155=VECTOR('',#154,3.135853902157624E-02);
#156=LINE('',#24,#155);
#157=EDGE_CURVE('',#25,#23,#156,.T.);
#158=DIRECTION('',(1.000000000000000E+00,0.0,0.0));
#159=VECTOR('',#158,3.135853900000000E-02);
#160=LINE('',#26,#159);
#161=EDGE_CURVE('',#27,#25,#160,.T.);
#162=DIRECTION('',(9.781476005274117E-01,2.079116917887670E-01,0.0));
#163=VECTOR('',#162,3.135853902157624E-02);
#164=LINE('',#28,#163);
#165=EDGE_CURVE('',#29,#27,#164,.T.);
#166=DIRECTION('',(9.135454583194839E-01,4.067366415554963E-01,0.0));
#167=VECTOR('',#166,3.135853890916225E-02);
#168=LINE('',#30,#167);
#169=EDGE_CURVE('',#31,#29,#168,.T.);
#170=DIRECTION('',(8.090169940656282E-01,5.877852527182146E-01,0.0));
#171=VECTOR('',#170,3.135853904935648E-02);
#172=LINE('',#32,#171);
#173=EDGE_CURVE('',#33,#31,#172,.T.);
#174=DIRECTION('',(6.691306059633435E-01,7.431448258335173E-01,0.0));
#175=VECTOR('',#174,3.135853899522496E-02);
#176=LINE('',#34,#175);
#177=EDGE_CURVE('',#35,#33,#176,.T.);
#178=DIRECTION('',(4.999999989831456E-01,8.660254043715199E-01,0.0));
#179=VECTOR('',#178,3.135853886377411E-02);
#180=LINE('',#36,#179);
#181=EDGE_CURVE('',#37,#35,#180,.T.);
#182=DIRECTION('',(3.090169948480978E-01,9.510565161414177E-01,0.0));
#183=VECTOR('',#182,3.135853904981326E-02);
#184=LINE('',#38,#183);
#185=EDGE_CURVE('',#39,#37,#184,.T.);
#186=DIRECTION('',(1.045284636604281E-01,9.945218953269911E-01,0.0));
#187=VECTOR('',#186,3.135853895880898E-02);
#188=LINE('',#40,#187);
#189=EDGE_CURVE('',#41,#39,#188,.T.);
#190=DIRECTION('',(-1.045284636604281E-01,9.945218953269911E-01,0.0));
#191=VECTOR('',#190,3.135853895880898E-02);
#192=LINE('',#42,#191);
#193=EDGE_CURVE('',#43,#41,#192,.T.);
#194=DIRECTION('',(-3.090169948480978E-01,9.510565161414177E-01,0.0));
#195=VECTOR('',#194,3.135853904981326E-02);
#196=LINE('',#44,#195);
#197=EDGE_CURVE('',#45,#43,#196,.T.);
#198=DIRECTION('',(-4.999999989831456E-01,8.660254043715199E-01,0.0));
#199=VECTOR('',#198,3.135853886377411E-02);
#200=LINE('',#46,#199);
#201=EDGE_CURVE('',#47,#45,#200,.T.);
#202=DIRECTION('',(-6.691306059633435E-01,7.431448258335173E-01,0.0));
#203=VECTOR('',#202,3.135853899522496E-02);
#204=LINE('',#48,#203);
#205=EDGE_CURVE('',#49,#47,#204,.T.);
#206=DIRECTION('',(-8.090169940656282E-01,5.877852527182146E-01,0.0));
#207=VECTOR('',#206,3.135853904935648E-02);
#208=LINE('',#50,#207);
#209=EDGE_CURVE('',#51,#49,#208,.T.);
#210=DIRECTION('',(-9.135454583194839E-01,4.067366415554963E-01,0.0));
#211=VECTOR('',#210,3.135853890916225E-02);
#212=LINE('',#52,#211);
#213=EDGE_CURVE('',#53,#51,#212,.T.);
#214=DIRECTION('',(-9.781476005274117E-01,2.079116917887670E-01,0.0));
#215=VECTOR('',#214,3.135853902157624E-02);
#216=LINE('',#54,#215);
#217=EDGE_CURVE('',#55,#53,#216,.T.);
#218=DIRECTION('',(-1.000000000000000E+00,0.0,0.0));
#219=VECTOR('',#218,3.135853900000000E-02);
#220=LINE('',#56,#219);
#221=EDGE_CURVE('',#57,#55,#220,.T.);
#222=DIRECTION('',(-9.781476005274117E-01,-2.079116917887670E-01,0.0));
#223=VECTOR('',#222,3.135853902157624E-02);
#224=LINE('',#58,#223);
#225=EDGE_CURVE('',#59,#57,#224,.T.);
#226=DIRECTION('',(-9.135454583194839E-01,-4.067366415554963E-01,0.0));
#227=VECTOR('',#226,3.135853890916225E-02);
#228=LINE('',#60,#227);
#229=EDGE_CURVE('',#61,#59,#228,.T.);
#230=DIRECTION('',(-8.090169940656282E-01,-5.877852527182146E-01,0.0));
#231=VECTOR('',#230,3.135853904935648E-02);
#232=LINE('',#62,#231);
#233=EDGE_CURVE('',#63,#61,#232,.T.);
#234=DIRECTION('',(-6.691306059633435E-01,-7.431448258335173E-01,0.0));
#235=VECTOR('',#234,3.135853899522496E-02);
#236=LINE('',#64,#235);
#237=EDGE_CURVE('',#65,#63,#236,.T.);
#238=DIRECTION('',(-4.999999989831456E-01,-8.660254043715199E-01,0.0));
#239=VECTOR('',#238,3.135853886377411E-02);
#240=LINE('',#66,#239);
#241=EDGE_CURVE('',#67,#65,#240,.T.);
#242=DIRECTION('',(-3.090169948480978E-01,-9.510565161414177E-01,0.0));
#243=VECTOR('',#242,3.135853904981326E-02);
#244=LINE('',#68,#243);
#245=EDGE_CURVE('',#69,#67,#244,.T.);
#246=DIRECTION('',(-1.045284636604281E-01,-9.945218953269911E-01,0.0));
#247=VECTOR('',#246,3.135853895880898E-02);
#248=LINE('',#10,#247);
#249=EDGE_CURVE('',#11,#69,#248,.T.);
#250=DIRECTION('',(0.0,0.0,-1.000000000000000E+00));
#251=VECTOR('',#250,5.500000000000000E-01);
#252=LINE('',#70,#251);
#253=EDGE_CURVE('',#71,#11,#252,.T.);
#254=DIRECTION('',(0.0,0.0,-1.000000000000000E+00));
#255=VECTOR('',#254,5.500000000000000E-01);
#256=LINE('',#72,#255);
#257=EDGE_CURVE('',#73,#13,#256,.T.);
#258=DIRECTION('',(1.045284636604281E-01,-9.945218953269911E-01,0.0));
#259=VECTOR('',#258,3.135853895880898E-02);
#260=LINE('',#72,#259);
#261=EDGE_CURVE('',#73,#71,#260,.T.);
#262=DIRECTION('',(0.0,0.0,-1.000000000000000E+00));
#263=VECTOR('',#262,5.500000000000000E-01);
#264=LINE('',#74,#263);
#265=EDGE_CURVE('',#75,#15,#264,.T.);
#266=DIRECTION('',(3.090169948480978E-01,-9.510565161414177E-01,0.0));
#267=VECTOR('',#266,3.135853904981326E-02);
#268=LINE('',#74,#267);
#269=EDGE_CURVE('',#75,#73,#268,.T.);
#270=DIRECTION('',(0.0,0.0,-1.000000000000000E+00));
#271=VECTOR('',#270,5.500000000000000E-01);
#272=LINE('',#76,#271);
#273=EDGE_CURVE('',#77,#17,#272,.T.);
#274=DIRECTION('',(4.999999989831456E-01,-8.660254043715199E-01,0.0));
#275=VECTOR('',#274,3.135853886377411E-02);
#276=LINE('',#76,#275);
#277=EDGE_CURVE('',#77,#75,#276,.T.);
#278=DIRECTION('',(0.0,0.0,-1.000000000000000E+00));
#279=VECTOR('',#278,5.500000000000000E-01);
#280=LINE('',#78,#279);
#281=EDGE_CURVE('',#79,#19,#280,.T.);
#282=DIRECTION('',(6.691306059633435E-01,-7.431448258335173E-01,0.0));
#283=VECTOR('',#282,3.135853899522496E-02);
#284=LINE('',#78,#283);
#285=EDGE_CURVE('',#79,#77,#284,.T.);
#286=DIRECTION('',(0.0,0.0,-1.000000000000000E+00));
#287=VECTOR('',#286,5.500000000000000E-01);
#288=LINE('',#80,#287);
#289=EDGE_CURVE('',#81,#21,#288,.T.);
#290=DIRECTION('',(8.090169940656282E-01,-5.877852527182146E-01,0.0));
#291=VECTOR('',#290,3.135853904935648E-02);
#292=LINE('',#80,#291);
#293=EDGE_CURVE('',#81,#79,#292,.T.);
#294=DIRECTION('',(0.0,0.0,-1.000000000000000E+00));
#295=VECTOR('',#294,5.500000000000000E-01);
#296=LINE('',#82,#295);
#297=EDGE_CURVE('',#83,#23,#296,.T.);
#298=DIRECTION('',(9.135454583194839E-01,-4.067366415554963E-01,0.0));
#299=VECTOR('',#298,3.135853890916225E-02);
#300=LINE('',#82,#299);
#301=EDGE_CURVE('',#83,#81,#300,.T.);
#302=DIRECTION('',(0.0,0.0,-1.000000000000000E+00));
#303=VECTOR('',#302,5.500000000000000E-01);
#304=LINE('',#84,#303);
#305=EDGE_CURVE('',#85,#25,#304,.T.);
#306=DIRECTION('',(9.781476005274117E-01,-2.079116917887670E-01,0.0));
#307=VECTOR('',#306,3.135853902157624E-02);
#308=LINE('',#84,#307);
#309=EDGE_CURVE('',#85,#83,#308,.T.);
#310=DIRECTION('',(0.0,0.0,-1.000000000000000E+00));
#311=VECTOR('',#310,5.500000000000000E-01);
#312=LINE('',#86,#311);
#313=EDGE_CURVE('',#87,#27,#312,.T.);
#314=DIRECTION('',(1.000000000000000E+00,0.0,0.0));
#315=VECTOR('',#314,3.135853900000000E-02);
#316=LINE('',#86,#315);
#317=EDGE_CURVE('',#87,#85,#316,.T.);
#318=DIRECTION('',(0.0,0.0,-1.000000000000000E+00));
#319=VECTOR('',#318,5.500000000000000E-01);
#320=LINE('',#88,#319);
#321=EDGE_CURVE('',#89,#29,#320,.T.);
#322=DIRECTION('',(9.781476005274117E-01,2.079116917887670E-01,0.0));
#323=VECTOR('',#322,3.135853902157624E-02);
#324=LINE('',#88,#323);
#325=EDGE_CURVE('',#89,#87,#324,.T.);
#326=DIRECTION('',(0.0,0.0,-1.000000000000000E+00));
#327=VECTOR('',#326,5.500000000000000E-01);
#328=LINE('',#90,#327);
#329=EDGE_CURVE('',#91,#31,#328,.T.);
#330=DIRECTION('',(9.135454583194839E-01,4.067366415554963E-01,0.0));
#331=VECTOR('',#330,3.135853890916225E-02);
#332=LINE('',#90,#331);
#333=EDGE_CURVE('',#91,#89,#332,.T.);
#334=DIRECTION('',(0.0,0.0,-1.000000000000000E+00));
#335=VECTOR('',#334,5.500000000000000E-01);
#336=LINE('',#92,#335);
#337=EDGE_CURVE('',#93,#33,#336,.T.);
#338=DIRECTION('',(8.090169940656282E-01,5.877852527182146E-01,0.0));
#339=VECTOR('',#338,3.135853904935648E-02);
#340=LINE('',#92,#339);
#341=EDGE_CURVE('',#93,#91,#340,.T.);
#342=DIRECTION('',(0.0,0.0,-1.000000000000000E+00));
#343=VECTOR('',#342,5.500000000000000E-01);
#344=LINE('',#94,#343);
#345=EDGE_CURVE('',#95,#35,#344,.T.);
#346=DIRECTION('',(6.691306059633435E-01,7.431448258335173E-01,0.0));
#347=VECTOR('',#346,3.135853899522496E-02);
#348=LINE('',#94,#347);
#349=EDGE_CURVE('',#95,#93,#348,.T.);
#350=DIRECTION('',(0.0,0.0,-1.000000000000000E+00));
#351=VECTOR('',#350,5.500000000000000E-01);
#352=LINE('',#96,#351);
#353=EDGE_CURVE('',#97,#37,#352,.T.);
#354=DIRECTION('',(4.999999989831456E-01,8.660254043715199E-01,0.0));
#355=VECTOR('',#354,3.135853886377411E-02);
#356=LINE('',#96,#355);
#357=EDGE_CURVE('',#97,#95,#356,.T.);
#358=DIRECTION('',(0.0,0.0,-1.000000000000000E+00));
#359=VECTOR('',#358,5.500000000000000E-01);
#360=LINE('',#98,#359);
#361=EDGE_CURVE('',#99,#39,#360,.T.);
#362=DIRECTION('',(3.090169948480978E-01,9.510565161414177E-01,0.0));
#363=VECTOR('',#362,3.135853904981326E-02);
#364=LINE('',#98,#363);
#365=EDGE_CURVE('',#99,#97,#364,.T.);
#366=DIRECTION('',(0.0,0.0,-1.000000000000000E+00));
#367=VECTOR('',#366,5.500000000000000E-01);
#368=LINE('',#100,#367);
#369=EDGE_CURVE('',#101,#41,#368,.T.);
#370=DIRECTION('',(1.045284636604281E-01,9.945218953269911E-01,0.0));
#371=VECTOR('',#370,3.135853895880898E-02);
#372=LINE('',#100,#371);
#373=EDGE_CURVE('',#101,#99,#372,.T.);
#374=DIRECTION('',(0.0,0.0,-1.000000000000000E+00));
#375=VECTOR('',#374,5.500000000000000E-01);
#376=LINE('',#102,#375);
#377=EDGE_CURVE('',#103,#43,#376,.T.);
#378=DIRECTION('',(-1.045284636604281E-01,9.945218953269911E-01,0.0));
#379=VECTOR('',#378,3.135853895880898E-02);
#380=LINE('',#102,#379);
#381=EDGE_CURVE('',#103,#101,#380,.T.);
#382=DIRECTION('',(0.0,0.0,-1.000000000000000E+00));
#383=VECTOR('',#382,5.500000000000000E-01);
#384=LINE('',#104,#383);
#385=EDGE_CURVE('',#105,#45,#384,.T.);
#386=DIRECTION('',(-3.090169948480978E-01,9.510565161414177E-01,0.0));
#387=VECTOR('',#386,3.135853904981326E-02);
#388=LINE('',#104,#387);
#389=EDGE_CURVE('',#105,#103,#388,.T.);
#390=DIRECTION('',(0.0,0.0,-1.000000000000000E+00));
#391=VECTOR('',#390,5.500000000000000E-01);
#392=LINE('',#106,#391);
#393=EDGE_CURVE('',#107,#47,#392,.T.);
#394=DIRECTION('',(-4.999999989831456E-01,8.660254043715199E-01,0.0));
#395=VECTOR('',#394,3.135853886377411E-02);
#396=LINE('',#106,#395);
#397=EDGE_CURVE('',#107,#105,#396,.T.);
#398=DIRECTION('',(0.0,0.0,-1.000000000000000E+00));
#399=VECTOR('',#398,5.500000000000000E-01);
#400=LINE('',#108,#399);
#401=EDGE_CURVE('',#109,#49,#400,.T.);
#402=DIRECTION('',(-6.691306059633435E-01,7.431448258335173E-01,0.0));
#403=VECTOR('',#402,3.135853899522496E-02);
#404=LINE('',#108,#403);
#405=EDGE_CURVE('',#109,#107,#404,.T.);
#406=DIRECTION('',(0.0,0.0,-1.000000000000000E+00));
#407=VECTOR('',#406,5.500000000000000E-01);
#408=LINE('',#110,#407);
#409=EDGE_CURVE('',#111,#51,#408,.T.);
#410=DIRECTION('',(-8.090169940656282E-01,5.877852527182146E-01,0.0));
#411=VECTOR('',#410,3.135853904935648E-02);
#412=LINE('',#110,#411);
#413=EDGE_CURVE('',#111,#109,#412,.T.);
#414=DIRECTION('',(0.0,0.0,-1.000000000000000E+00));
#415=VECTOR('',#414,5.500000000000000E-01);
#416=LINE('',#112,#415);
#417=EDGE_CURVE('',#113,#53,#416,.T.);
#418=DIRECTION('',(-9.135454583194839E-01,4.067366415554963E-01,0.0));
#419=VECTOR('',#418,3.135853890916225E-02);
#420=LINE('',#112,#419);
#421=EDGE_CURVE('',#113,#111,#420,.T.);
#422=DIRECTION('',(0.0,0.0,-1.000000000000000E+00));
#423=VECTOR('',#422,5.500000000000000E-01);
#424=LINE('',#114,#423);
#425=EDGE_CURVE('',#115,#55,#424,.T.);
#426=DIRECTION('',(-9.781476005274117E-01,2.079116917887670E-01,0.0));
#427=VECTOR('',#426,3.135853902157624E-02);
#428=LINE('',#114,#427);
#429=EDGE_CURVE('',#115,#113,#428,.T.);
#430=DIRECTION('',(0.0,0.0,-1.000000000000000E+00));
#431=VECTOR('',#430,5.500000000000000E-01);
#432=LINE('',#116,#431);
#433=EDGE_CURVE('',#117,#57,#432,.T.);
#434=DIRECTION('',(-1.000000000000000E+00,0.0,0.0));
#435=VECTOR('',#434,3.135853900000000E-02);
#436=LINE('',#116,#435);
#437=EDGE_CURVE('',#117,#115,#436,.T.);
#438=DIRECTION('',(0.0,0.0,-1.000000000000000E+00));
#439=VECTOR('',#438,5.500000000000000E-01);
#440=LINE('',#118,#439);
#441=EDGE_CURVE('',#119,#59,#440,.T.);
#442=DIRECTION('',(-9.781476005274117E-01,-2.079116917887670E-01,0.0));
#443=VECTOR('',#442,3.135853902157624E-02);
#444=LINE('',#118,#443);
#445=EDGE_CURVE('',#119,#117,#444,.T.);
#446=DIRECTION('',(0.0,0.0,-1.000000000000000E+00));
#447=VECTOR('',#446,5.500000000000000E-01);
#448=LINE('',#120,#447);
#449=EDGE_CURVE('',#121,#61,#448,.T.);
#450=DIRECTION('',(-9.135454583194839E-01,-4.067366415554963E-01,0.0));
#451=VECTOR('',#450,3.135853890916225E-02);
#452=LINE('',#120,#451);
#453=EDGE_CURVE('',#121,#119,#452,.T.);
#454=DIRECTION('',(0.0,0.0,-1.000000000000000E+00));
#455=VECTOR('',#454,5.500000000000000E-01);
#456=LINE('',#122,#455);
#457=EDGE_CURVE('',#123,#63,#456,.T.);
#458=DIRECTION('',(-8.090169940656282E-01,-5.877852527182146E-01,0.0));
#459=VECTOR('',#458,3.135853904935648E-02);
#460=LINE('',#122,#459);
#461=EDGE_CURVE('',#123,#121,#460,.T.);
#462=DIRECTION('',(0.0,0.0,-1.000000000000000E+00));
#463=VECTOR('',#462,5.500000000000000E-01);
#464=LINE('',#124,#463);
#465=EDGE_CURVE('',#125,#65,#464,.T.);
#466=DIRECTION('',(-6.691306059633435E-01,-7.431448258335173E-01,0.0));
#467=VECTOR('',#466,3.135853899522496E-02);
#468=LINE('',#124,#467);
#469=EDGE_CURVE('',#125,#123,#468,.T.);
#470=DIRECTION('',(0.0,0.0,-1.000000000000000E+00));
#471=VECTOR('',#470,5.500000000000000E-01);
#472=LINE('',#126,#471);
#473=EDGE_CURVE('',#127,#67,#472,.T.);
#474=DIRECTION('',(-4.999999989831456E-01,-8.660254043715199E-01,0.0));
#475=VECTOR('',#474,3.135853886377411E-02);
#476=LINE('',#126,#475);
#477=EDGE_CURVE('',#127,#125,#476,.T.);
#478=DIRECTION('',(0.0,0.0,-1.000000000000000E+00));
#479=VECTOR('',#478,5.500000000000000E-01);
#480=LINE('',#128,#479);
#481=EDGE_CURVE('',#129,#69,#480,.T.);
#482=DIRECTION('',(-3.090169948480978E-01,-9.510565161414177E-01,0.0));
#483=VECTOR('',#482,3.135853904981326E-02);
#484=LINE('',#128,#483);
#485=EDGE_CURVE('',#129,#127,#484,.T.);
#486=DIRECTION('',(-1.045284636604281E-01,-9.945218953269911E-01,0.0));
#487=VECTOR('',#486,3.135853895880898E-02);
#488=LINE('',#70,#487);
#489=EDGE_CURVE('',#71,#129,#488,.T.);
#490=CARTESIAN_POINT('',(1.467221401000000E-01,-3.118675360000000E-02,5.500000000000000E-01));
#491=DIRECTION('',(1.977732522988833E-16,0.0,1.000000000000000E+00));
#492=DIRECTION('',(0.0,1.000000000000000E+00,0.0));
#493=AXIS2_PLACEMENT_3D('',#490,#491,#492);
#494=PLANE('',#493);
#495=ORIENTED_EDGE('',*,*,#489,.F.);
#496=ORIENTED_EDGE('',*,*,#261,.F.);
#497=ORIENTED_EDGE('',*,*,#269,.F.);
#498=ORIENTED_EDGE('',*,*,#277,.F.);
#499=ORIENTED_EDGE('',*,*,#285,.F.);
#500=ORIENTED_EDGE('',*,*,#293,.F.);
#501=ORIENTED_EDGE('',*,*,#301,.F.);
#502=ORIENTED_EDGE('',*,*,#309,.F.);
#503=ORIENTED_EDGE('',*,*,#317,.F.);
#504=ORIENTED_EDGE('',*,*,#325,.F.);
#505=ORIENTED_EDGE('',*,*,#333,.F.);
#506=ORIENTED_EDGE('',*,*,#341,.F.);
#507=ORIENTED_EDGE('',*,*,#349,.F.);
#508=ORIENTED_EDGE('',*,*,#357,.F.);
#509=ORIENTED_EDGE('',*,*,#365,.F.);
#510=ORIENTED_EDGE('',*,*,#373,.F.);
#511=ORIENTED_EDGE('',*,*,#381,.F.);
#512=ORIENTED_EDGE('',*,*,#389,.F.);
#513=ORIENTED_EDGE('',*,*,#397,.F.);
#514=ORIENTED_EDGE('',*,*,#405,.F.);
#515=ORIENTED_EDGE('',*,*,#413,.F.);
#516=ORIENTED_EDGE('',*,*,#421,.F.);
#517=ORIENTED_EDGE('',*,*,#429,.F.);
#518=ORIENTED_EDGE('',*,*,#437,.F.);
#519=ORIENTED_EDGE('',*,*,#445,.F.);
#520=ORIENTED_EDGE('',*,*,#453,.F.);
#521=ORIENTED_EDGE('',*,*,#461,.F.);
#522=ORIENTED_EDGE('',*,*,#469,.F.);
#523=ORIENTED_EDGE('',*,*,#477,.F.);
#524=ORIENTED_EDGE('',*,*,#485,.F.);
#525=EDGE_LOOP('',(#495,#496,#497,#498,#499,#500,#501,#502,#503,#504,#505,#506,#507,#508,#509,#510,#511,#512,#513,#514,#515,#516,#517,#518,#519,#520,#521,#522,#523,#524));
#526=FACE_OUTER_BOUND('',#525,.T.);
#527=ADVANCED_FACE('',(#526),#494,.T.);
#528=CARTESIAN_POINT('',(1.500000000000000E-01,0.0,0.0));
#529=DIRECTION('',(0.0,0.0,-1.000000000000000E+00));
#530=DIRECTION('',(1.000000000000000E+00,0.0,0.0));
#531=AXIS2_PLACEMENT_3D('',#528,#529,#530);
#532=PLANE('',#531);
#533=ORIENTED_EDGE('',*,*,#249,.T.);
#534=ORIENTED_EDGE('',*,*,#245,.T.);
#535=ORIENTED_EDGE('',*,*,#241,.T.);
#536=ORIENTED_EDGE('',*,*,#237,.T.);
#537=ORIENTED_EDGE('',*,*,#233,.T.);
#538=ORIENTED_EDGE('',*,*,#229,.T.);
#539=ORIENTED_EDGE('',*,*,#225,.T.);
#540=ORIENTED_EDGE('',*,*,#221,.T.);
#541=ORIENTED_EDGE('',*,*,#217,.T.);
#542=ORIENTED_EDGE('',*,*,#213,.T.);
#543=ORIENTED_EDGE('',*,*,#209,.T.);
#544=ORIENTED_EDGE('',*,*,#205,.T.);
#545=ORIENTED_EDGE('',*,*,#201,.T.);
#546=ORIENTED_EDGE('',*,*,#197,.T.);
#547=ORIENTED_EDGE('',*,*,#193,.T.);
#548=ORIENTED_EDGE('',*,*,#189,.T.);
#549=ORIENTED_EDGE('',*,*,#185,.T.);
#550=ORIENTED_EDGE('',*,*,#181,.T.);
#551=ORIENTED_EDGE('',*,*,#177,.T.);
#552=ORIENTED_EDGE('',*,*,#173,.T.);
#553=ORIENTED_EDGE('',*,*,#169,.T.);
#554=ORIENTED_EDGE('',*,*,#165,.T.);
#555=ORIENTED_EDGE('',*,*,#161,.T.);
#556=ORIENTED_EDGE('',*,*,#157,.T.);
#557=ORIENTED_EDGE('',*,*,#153,.T.);
#558=ORIENTED_EDGE('',*,*,#149,.T.);
#559=ORIENTED_EDGE('',*,*,#145,.T.);
#560=ORIENTED_EDGE('',*,*,#141,.T.);
#561=ORIENTED_EDGE('',*,*,#137,.T.);
#562=ORIENTED_EDGE('',*,*,#133,.T.);
#563=EDGE_LOOP('',(#533,#534,#535,#536,#537,#538,#539,#540,#541,#542,#543,#544,#545,#546,#547,#548,#549,#550,#551,#552,#553,#554,#555,#556,#557,#558,#559,#560,#561,#562));
#564=FACE_OUTER_BOUND('',#563,.T.);
#565=ADVANCED_FACE('',(#564),#532,.T.);
#566=CARTESIAN_POINT('',(1.467221401000000E-01,3.118675360000000E-02,5.500000000000000E-01));
#567=DIRECTION('',(9.945218953269911E-01,1.045284636604281E-01,0.0));
#568=DIRECTION('',(0.0,0.0,1.000000000000000E+00));
#569=AXIS2_PLACEMENT_3D('',#566,#567,#568);
#570=PLANE('',#569);
#571=ORIENTED_EDGE('',*,*,#261,.T.);
#572=ORIENTED_EDGE('',*,*,#253,.T.);
#573=ORIENTED_EDGE('',*,*,#133,.F.);
#574=ORIENTED_EDGE('',*,*,#257,.F.);
#575=EDGE_LOOP('',(#571,#572,#573,#574));
#576=FACE_OUTER_BOUND('',#575,.T.);
#577=ADVANCED_FACE('',(#576),#570,.T.);
#578=CARTESIAN_POINT('',(1.370318186000000E-01,6.101049650000000E-02,5.500000000000000E-01));
#579=DIRECTION('',(9.510565161414177E-01,3.090169948480975E-01,0.0));
#580=DIRECTION('',(0.0,0.0,1.000000000000000E+00));
#581=AXIS2_PLACEMENT_3D('',#578,#579,#580);
#582=PLANE('',#581);
#583=ORIENTED_EDGE('',*,*,#269,.T.);
#584=ORIENTED_EDGE('',*,*,#257,.T.);
#585=ORIENTED_EDGE('',*,*,#137,.F.);
#586=ORIENTED_EDGE('',*,*,#265,.F.);
#587=EDGE_LOOP('',(#583,#584,#585,#586));
#588=FACE_OUTER_BOUND('',#587,.T.);
#589=ADVANCED_FACE('',(#588),#582,.T.);
#590=CARTESIAN_POINT('',(1.213525492000000E-01,8.816778780000000E-02,5.500000000000000E-01));
#591=DIRECTION('',(8.660254043715198E-01,4.999999989831457E-01,0.0));
#592=DIRECTION('',(0.0,0.0,1.000000000000000E+00));
#593=AXIS2_PLACEMENT_3D('',#590,#591,#592);
#594=PLANE('',#593);
#595=ORIENTED_EDGE('',*,*,#277,.T.);
#596=ORIENTED_EDGE('',*,*,#265,.T.);
#597=ORIENTED_EDGE('',*,*,#141,.F.);
#598=ORIENTED_EDGE('',*,*,#273,.F.);
#599=EDGE_LOOP('',(#595,#596,#597,#598));
#600=FACE_OUTER_BOUND('',#599,.T.);
#601=ADVANCED_FACE('',(#600),#594,.T.);
#602=CARTESIAN_POINT('',(1.003695910000000E-01,1.114717238000000E-01,5.500000000000000E-01));
#603=DIRECTION('',(7.431448258335172E-01,6.691306059633436E-01,0.0));
#604=DIRECTION('',(0.0,0.0,1.000000000000000E+00));
#605=AXIS2_PLACEMENT_3D('',#602,#603,#604);
#606=PLANE('',#605);
#607=ORIENTED_EDGE('',*,*,#285,.T.);
#608=ORIENTED_EDGE('',*,*,#273,.T.);
#609=ORIENTED_EDGE('',*,*,#145,.F.);
#610=ORIENTED_EDGE('',*,*,#281,.F.);
#611=EDGE_LOOP('',(#607,#608,#609,#610));
#612=FACE_OUTER_BOUND('',#611,.T.);
#613=ADVANCED_FACE('',(#612),#606,.T.);
#614=CARTESIAN_POINT('',(7.500000000000000E-02,1.299038106000000E-01,5.500000000000000E-01));
#615=DIRECTION('',(5.877852527182146E-01,8.090169940656282E-01,0.0));
#616=DIRECTION('',(0.0,0.0,1.000000000000000E+00));
#617=AXIS2_PLACEMENT_3D('',#614,#615,#616);
#618=PLANE('',#617);
#619=ORIENTED_EDGE('',*,*,#293,.T.);
#620=ORIENTED_EDGE('',*,*,#281,.T.);
#621=ORIENTED_EDGE('',*,*,#149,.F.);
#622=ORIENTED_EDGE('',*,*,#289,.F.);
#623=EDGE_LOOP('',(#619,#620,#621,#622));
#624=FACE_OUTER_BOUND('',#623,.T.);
#625=ADVANCED_FACE('',(#624),#618,.T.);
#626=CARTESIAN_POINT('',(4.635254920000000E-02,1.426584774000000E-01,5.500000000000000E-01));
#627=DIRECTION('',(4.067366415554963E-01,9.135454583194839E-01,0.0));
#628=DIRECTION('',(0.0,0.0,1.000000000000000E+00));
#629=AXIS2_PLACEMENT_3D('',#626,#627,#628);
#630=PLANE('',#629);
#631=ORIENTED_EDGE('',*,*,#301,.T.);
#632=ORIENTED_EDGE('',*,*,#289,.T.);
#633=ORIENTED_EDGE('',*,*,#153,.F.);
#634=ORIENTED_EDGE('',*,*,#297,.F.);
#635=EDGE_LOOP('',(#631,#632,#633,#634));
#636=FACE_OUTER_BOUND('',#635,.T.);
#637=ADVANCED_FACE('',(#636),#630,.T.);
#638=CARTESIAN_POINT('',(1.567926950000000E-02,1.491782843000000E-01,5.500000000000000E-01));
#639=DIRECTION('',(2.079116917887670E-01,9.781476005274116E-01,0.0));
#640=DIRECTION('',(0.0,0.0,1.000000000000000E+00));
#641=AXIS2_PLACEMENT_3D('',#638,#639,#640);
#642=PLANE('',#641);
#643=ORIENTED_EDGE('',*,*,#309,.T.);
#644=ORIENTED_EDGE('',*,*,#297,.T.);
#645=ORIENTED_EDGE('',*,*,#157,.F.);
#646=ORIENTED_EDGE('',*,*,#305,.F.);
#647=EDGE_LOOP('',(#643,#644,#645,#646));
#648=FACE_OUTER_BOUND('',#647,.T.);
#649=ADVANCED_FACE('',(#648),#642,.T.);
#650=CARTESIAN_POINT('',(-1.567926950000000E-02,1.491782843000000E-01,5.500000000000000E-01));
#651=DIRECTION('',(0.0,1.000000000000000E+00,0.0));
#652=DIRECTION('',(1.000000000000000E+00,0.0,0.0));
#653=AXIS2_PLACEMENT_3D('',#650,#651,#652);
#654=PLANE('',#653);
#655=ORIENTED_EDGE('',*,*,#317,.T.);
#656=ORIENTED_EDGE('',*,*,#305,.T.);
#657=ORIENTED_EDGE('',*,*,#161,.F.);
#658=ORIENTED_EDGE('',*,*,#313,.F.);
#659=EDGE_LOOP('',(#655,#656,#657,#658));
#660=FACE_OUTER_BOUND('',#659,.T.);
#661=ADVANCED_FACE('',(#660),#654,.T.);
#662=CARTESIAN_POINT('',(-4.635254920000000E-02,1.426584774000000E-01,5.500000000000000E-01));
#663=DIRECTION('',(-2.079116917887670E-01,9.781476005274116E-01,0.0));
#664=DIRECTION('',(0.0,0.0,1.000000000000000E+00));
#665=AXIS2_PLACEMENT_3D('',#662,#663,#664);
#666=PLANE('',#665);
#667=ORIENTED_EDGE('',*,*,#325,.T.);
#668=ORIENTED_EDGE('',*,*,#313,.T.);
#669=ORIENTED_EDGE('',*,*,#165,.F.);
#670=ORIENTED_EDGE('',*,*,#321,.F.);
#671=EDGE_LOOP('',(#667,#668,#669,#670));
#672=FACE_OUTER_BOUND('',#671,.T.);
#673=ADVANCED_FACE('',(#672),#666,.T.);
#674=CARTESIAN_POINT('',(-7.500000000000000E-02,1.299038106000000E-01,5.500000000000000E-01));
#675=DIRECTION('',(-4.067366415554963E-01,9.135454583194839E-01,0.0));
#676=DIRECTION('',(0.0,0.0,1.000000000000000E+00));
#677=AXIS2_PLACEMENT_3D('',#674,#675,#676);
#678=PLANE('',#677);
#679=ORIENTED_EDGE('',*,*,#333,.T.);
#680=ORIENTED_EDGE('',*,*,#321,.T.);
#681=ORIENTED_EDGE('',*,*,#169,.F.);
#682=ORIENTED_EDGE('',*,*,#329,.F.);
#683=EDGE_LOOP('',(#679,#680,#681,#682));
#684=FACE_OUTER_BOUND('',#683,.T.);
#685=ADVANCED_FACE('',(#684),#678,.T.);
#686=CARTESIAN_POINT('',(-1.003695910000000E-01,1.114717238000000E-01,5.500000000000000E-01));
#687=DIRECTION('',(-5.877852527182146E-01,8.090169940656282E-01,0.0));
#688=DIRECTION('',(0.0,0.0,1.000000000000000E+00));
#689=AXIS2_PLACEMENT_3D('',#686,#687,#688);
#690=PLANE('',#689);
#691=ORIENTED_EDGE('',*,*,#341,.T.);
#692=ORIENTED_EDGE('',*,*,#329,.T.);
#693=ORIENTED_EDGE('',*,*,#173,.F.);
#694=ORIENTED_EDGE('',*,*,#337,.F.);
#695=EDGE_LOOP('',(#691,#692,#693,#694));
#696=FACE_OUTER_BOUND('',#695,.T.);
#697=ADVANCED_FACE('',(#696),#690,.T.);
#698=CARTESIAN_POINT('',(-1.213525492000000E-01,8.816778780000000E-02,5.500000000000000E-01));
#699=DIRECTION('',(-7.431448258335172E-01,6.691306059633436E-01,0.0));
#700=DIRECTION('',(0.0,0.0,1.000000000000000E+00));
#701=AXIS2_PLACEMENT_3D('',#698,#699,#700);
#702=PLANE('',#701);
#703=ORIENTED_EDGE('',*,*,#349,.T.);
#704=ORIENTED_EDGE('',*,*,#337,.T.);
#705=ORIENTED_EDGE('',*,*,#177,.F.);
#706=ORIENTED_EDGE('',*,*,#345,.F.);
#707=EDGE_LOOP('',(#703,#704,#705,#706));
#708=FACE_OUTER_BOUND('',#707,.T.);
#709=ADVANCED_FACE('',(#708),#702,.T.);
#710=CARTESIAN_POINT('',(-1.370318186000000E-01,6.101049650000000E-02,5.500000000000000E-01));
#711=DIRECTION('',(-8.660254043715198E-01,4.999999989831457E-01,0.0));
#712=DIRECTION('',(0.0,0.0,1.000000000000000E+00));
#713=AXIS2_PLACEMENT_3D('',#710,#711,#712);
#714=PLANE('',#713);
#715=ORIENTED_EDGE('',*,*,#357,.T.);
#716=ORIENTED_EDGE('',*,*,#345,.T.);
#717=ORIENTED_EDGE('',*,*,#181,.F.);
#718=ORIENTED_EDGE('',*,*,#353,.F.);
#719=EDGE_LOOP('',(#715,#716,#717,#718));
#720=FACE_OUTER_BOUND('',#719,.T.);
#721=ADVANCED_FACE('',(#720),#714,.T.);
#722=CARTESIAN_POINT('',(-1.467221401000000E-01,3.118675360000000E-02,5.500000000000000E-01));
#723=DIRECTION('',(-9.510565161414177E-01,3.090169948480975E-01,0.0));
#724=DIRECTION('',(0.0,0.0,1.000000000000000E+00));
#725=AXIS2_PLACEMENT_3D('',#722,#723,#724);
#726=PLANE('',#725);
#727=ORIENTED_EDGE('',*,*,#365,.T.);
#728=ORIENTED_EDGE('',*,*,#353,.T.);
#729=ORIENTED_EDGE('',*,*,#185,.F.);
#730=ORIENTED_EDGE('',*,*,#361,.F.);
#731=EDGE_LOOP('',(#727,#728,#729,#730));
#732=FACE_OUTER_BOUND('',#731,.T.);
#733=ADVANCED_FACE('',(#732),#726,.T.);
#734=CARTESIAN_POINT('',(-1.500000000000000E-01,0.0,5.500000000000000E-01));
#735=DIRECTION('',(-9.945218953269911E-01,1.045284636604281E-01,0.0));
#736=DIRECTION('',(0.0,0.0,1.000000000000000E+00));
#737=AXIS2_PLACEMENT_3D('',#734,#735,#736);
#738=PLANE('',#737);
#739=ORIENTED_EDGE('',*,*,#373,.T.);
#740=ORIENTED_EDGE('',*,*,#361,.T.);
#741=ORIENTED_EDGE('',*,*,#189,.F.);
#742=ORIENTED_EDGE('',*,*,#369,.F.);
#743=EDGE_LOOP('',(#739,#740,#741,#742));
#744=FACE_OUTER_BOUND('',#743,.T.);
#745=ADVANCED_FACE('',(#744),#738,.T.);
#746=CARTESIAN_POINT('',(-1.467221401000000E-01,-3.118675360000000E-02,5.500000000000000E-01));
#747=DIRECTION('',(-9.945218953269911E-01,-1.045284636604281E-01,0.0));
#748=DIRECTION('',(0.0,0.0,1.000000000000000E+00));
#749=AXIS2_PLACEMENT_3D('',#746,#747,#748);
#750=PLANE('',#749);
#751=ORIENTED_EDGE('',*,*,#381,.T.);
#752=ORIENTED_EDGE('',*,*,#369,.T.);
#753=ORIENTED_EDGE('',*,*,#193,.F.);
#754=ORIENTED_EDGE('',*,*,#377,.F.);
#755=EDGE_LOOP('',(#751,#752,#753,#754));
#756=FACE_OUTER_BOUND('',#755,.T.);
#757=ADVANCED_FACE('',(#756),#750,.T.);
#758=CARTESIAN_POINT('',(-1.370318186000000E-01,-6.101049650000000E-02,5.500000000000000E-01));
#759=DIRECTION('',(-9.510565161414177E-01,-3.090169948480975E-01,0.0));
#760=DIRECTION('',(0.0,0.0,1.000000000000000E+00));
#761=AXIS2_PLACEMENT_3D('',#758,#759,#760);
#762=PLANE('',#761);
#763=ORIENTED_EDGE('',*,*,#389,.T.);
#764=ORIENTED_EDGE('',*,*,#377,.T.);
#765=ORIENTED_EDGE('',*,*,#197,.F.);
#766=ORIENTED_EDGE('',*,*,#385,.F.);
#767=EDGE_LOOP('',(#763,#764,#765,#766));
#768=FACE_OUTER_BOUND('',#767,.T.);
#769=ADVANCED_FACE('',(#768),#762,.T.);
#770=CARTESIAN_POINT('',(-1.213525492000000E-01,-8.816778780000000E-02,5.500000000000000E-01));
#771=DIRECTION('',(-8.660254043715198E-01,-4.999999989831457E-01,0.0));
#772=DIRECTION('',(0.0,0.0,1.000000000000000E+00));
#773=AXIS2_PLACEMENT_3D('',#770,#771,#772);
#774=PLANE('',#773);
#775=ORIENTED_EDGE('',*,*,#397,.T.);
#776=ORIENTED_EDGE('',*,*,#385,.T.);
#777=ORIENTED_EDGE('',*,*,#201,.F.);
#778=ORIENTED_EDGE('',*,*,#393,.F.);
#779=EDGE_LOOP('',(#775,#776,#777,#778));
#780=FACE_OUTER_BOUND('',#779,.T.);
#781=ADVANCED_FACE('',(#780),#774,.T.);
#782=CARTESIAN_POINT('',(-1.003695910000000E-01,-1.114717238000000E-01,5.500000000000000E-01));
#783=DIRECTION('',(-7.431448258335172E-01,-6.691306059633436E-01,0.0));
#784=DIRECTION('',(0.0,0.0,1.000000000000000E+00));
#785=AXIS2_PLACEMENT_3D('',#782,#783,#784);
#786=PLANE('',#785);
#787=ORIENTED_EDGE('',*,*,#405,.T.);
#788=ORIENTED_EDGE('',*,*,#393,.T.);
#789=ORIENTED_EDGE('',*,*,#205,.F.);
#790=ORIENTED_EDGE('',*,*,#401,.F.);
#791=EDGE_LOOP('',(#787,#788,#789,#790));
#792=FACE_OUTER_BOUND('',#791,.T.);
#793=ADVANCED_FACE('',(#792),#786,.T.);
#794=CARTESIAN_POINT('',(-7.500000000000000E-02,-1.299038106000000E-01,5.500000000000000E-01));
#795=DIRECTION('',(-5.877852527182146E-01,-8.090169940656282E-01,0.0));
#796=DIRECTION('',(0.0,0.0,1.000000000000000E+00));
#797=AXIS2_PLACEMENT_3D('',#794,#795,#796);
#798=PLANE('',#797);
#799=ORIENTED_EDGE('',*,*,#413,.T.);
#800=ORIENTED_EDGE('',*,*,#401,.T.);
#801=ORIENTED_EDGE('',*,*,#209,.F.);
#802=ORIENTED_EDGE('',*,*,#409,.F.);
#803=EDGE_LOOP('',(#799,#800,#801,#802));
#804=FACE_OUTER_BOUND('',#803,.T.);
#805=ADVANCED_FACE('',(#804),#798,.T.);
#806=CARTESIAN_POINT('',(-4.635254920000000E-02,-1.426584774000000E-01,5.500000000000000E-01));
#807=DIRECTION('',(-4.067366415554963E-01,-9.135454583194839E-01,0.0));
#808=DIRECTION('',(0.0,0.0,1.000000000000000E+00));
#809=AXIS2_PLACEMENT_3D('',#806,#807,#808);
#810=PLANE('',#809);
#811=ORIENTED_EDGE('',*,*,#421,.T.);
#812=ORIENTED_EDGE('',*,*,#409,.T.);
#813=ORIENTED_EDGE('',*,*,#213,.F.);
#814=ORIENTED_EDGE('',*,*,#417,.F.);
#815=EDGE_LOOP('',(#811,#812,#813,#814));
#816=FACE_OUTER_BOUND('',#815,.T.);
#817=ADVANCED_FACE('',(#816),#810,.T.);
#818=CARTESIAN_POINT('',(-1.567926950000000E-02,-1.491782843000000E-01,5.500000000000000E-01));
#819=DIRECTION('',(-2.079116917887670E-01,-9.781476005274116E-01,0.0));
#820=DIRECTION('',(0.0,0.0,1.000000000000000E+00));
#821=AXIS2_PLACEMENT_3D('',#818,#819,#820);
#822=PLANE('',#821);
#823=ORIENTED_EDGE('',*,*,#429,.T.);
#824=ORIENTED_EDGE('',*,*,#417,.T.);
#825=ORIENTED_EDGE('',*,*,#217,.F.);
#826=ORIENTED_EDGE('',*,*,#425,.F.);
#827=EDGE_LOOP('',(#823,#824,#825,#826));
#828=FACE_OUTER_BOUND('',#827,.T.);
#829=ADVANCED_FACE('',(#828),#822,.T.);
#830=CARTESIAN_POINT('',(1.567926950000000E-02,-1.491782843000000E-01,5.500000000000000E-01));
#831=DIRECTION('',(0.0,-1.000000000000000E+00,0.0));
#832=DIRECTION('',(1.000000000000000E+00,0.0,0.0));
#833=AXIS2_PLACEMENT_3D('',#830,#831,#832);
#834=PLANE('',#833);
#835=ORIENTED_EDGE('',*,*,#437,.T.);
#836=ORIENTED_EDGE('',*,*,#425,.T.);
#837=ORIENTED_EDGE('',*,*,#221,.F.);
#838=ORIENTED_EDGE('',*,*,#433,.F.);
#839=EDGE_LOOP('',(#835,#836,#837,#838));
#840=FACE_OUTER_BOUND('',#839,.T.);
#841=ADVANCED_FACE('',(#840),#834,.T.);
#842=CARTESIAN_POINT('',(4.635254920000000E-02,-1.426584774000000E-01,5.500000000000000E-01));
#843=DIRECTION('',(2.079116917887670E-01,-9.781476005274116E-01,0.0));
#844=DIRECTION('',(0.0,0.0,1.000000000000000E+00));
#845=AXIS2_PLACEMENT_3D('',#842,#843,#844);
#846=PLANE('',#845);
#847=ORIENTED_EDGE('',*,*,#445,.T.);
#848=ORIENTED_EDGE('',*,*,#433,.T.);
#849=ORIENTED_EDGE('',*,*,#225,.F.);
#850=ORIENTED_EDGE('',*,*,#441,.F.);
#851=EDGE_LOOP('',(#847,#848,#849,#850));
#852=FACE_OUTER_BOUND('',#851,.T.);
#853=ADVANCED_FACE('',(#852),#846,.T.);
#854=CARTESIAN_POINT('',(7.500000000000000E-02,-1.299038106000000E-01,5.500000000000000E-01));
#855=DIRECTION('',(4.067366415554963E-01,-9.135454583194839E-01,0.0));
#856=DIRECTION('',(0.0,0.0,1.000000000000000E+00));
#857=AXIS2_PLACEMENT_3D('',#854,#855,#856);
#858=PLANE('',#857);
#859=ORIENTED_EDGE('',*,*,#453,.T.);
#860=ORIENTED_EDGE('',*,*,#441,.T.);
#861=ORIENTED_EDGE('',*,*,#229,.F.);
#862=ORIENTED_EDGE('',*,*,#449,.F.);
#863=EDGE_LOOP('',(#859,#860,#861,#862));
#864=FACE_OUTER_BOUND('',#863,.T.);
#865=ADVANCED_FACE('',(#864),#858,.T.);
#866=CARTESIAN_POINT('',(1.003695910000000E-01,-1.114717238000000E-01,5.500000000000000E-01));
#867=DIRECTION('',(5.877852527182146E-01,-8.090169940656282E-01,0.0));
#868=DIRECTION('',(0.0,0.0,1.000000000000000E+00));
#869=AXIS2_PLACEMENT_3D('',#866,#867,#868);
#870=PLANE('',#869);
#871=ORIENTED_EDGE('',*,*,#461,.T.);
#872=ORIENTED_EDGE('',*,*,#449,.T.);
#873=ORIENTED_EDGE('',*,*,#233,.F.);
#874=ORIENTED_EDGE('',*,*,#457,.F.);
#875=EDGE_LOOP('',(#871,#872,#873,#874));
#876=FACE_OUTER_BOUND('',#875,.T.);
#877=ADVANCED_FACE('',(#876),#870,.T.);
#878=CARTESIAN_POINT('',(1.213525492000000E-01,-8.816778780000000E-02,5.500000000000000E-01));
#879=DIRECTION('',(7.431448258335172E-01,-6.691306059633436E-01,0.0));
#880=DIRECTION('',(0.0,0.0,1.000000000000000E+00));
#881=AXIS2_PLACEMENT_3D('',#878,#879,#880);
#882=PLANE('',#881);
#883=ORIENTED_EDGE('',*,*,#469,.T.);
#884=ORIENTED_EDGE('',*,*,#457,.T.);
#885=ORIENTED_EDGE('',*,*,#237,.F.);
#886=ORIENTED_EDGE('',*,*,#465,.F.);
#887=EDGE_LOOP('',(#883,#884,#885,#886));
#888=FACE_OUTER_BOUND('',#887,.T.);
#889=ADVANCED_FACE('',(#888),#882,.T.);
#890=CARTESIAN_POINT('',(1.370318186000000E-01,-6.101049650000000E-02,5.500000000000000E-01));
#891=DIRECTION('',(8.660254043715198E-01,-4.999999989831457E-01,0.0));
#892=DIRECTION('',(0.0,0.0,1.000000000000000E+00));
#893=AXIS2_PLACEMENT_3D('',#890,#891,#892);
#894=PLANE('',#893);
#895=ORIENTED_EDGE('',*,*,#477,.T.);
#896=ORIENTED_EDGE('',*,*,#465,.T.);
#897=ORIENTED_EDGE('',*,*,#241,.F.);
#898=ORIENTED_EDGE('',*,*,#473,.F.);
#899=EDGE_LOOP('',(#895,#896,#897,#898));
#900=FACE_OUTER_BOUND('',#899,.T.);
#901=ADVANCED_FACE('',(#900),#894,.T.);
#902=CARTESIAN_POINT('',(1.467221401000000E-01,-3.118675360000000E-02,5.500000000000000E-01));
#903=DIRECTION('',(9.510565161414177E-01,-3.090169948480975E-01,0.0));
#904=DIRECTION('',(0.0,0.0,1.000000000000000E+00));
#905=AXIS2_PLACEMENT_3D('',#902,#903,#904);
#906=PLANE('',#905);
#907=ORIENTED_EDGE('',*,*,#485,.T.);
#908=ORIENTED_EDGE('',*,*,#473,.T.);
#909=ORIENTED_EDGE('',*,*,#245,.F.);
#910=ORIENTED_EDGE('',*,*,#481,.F.);
#911=EDGE_LOOP('',(#907,#908,#909,#910));
#912=FACE_OUTER_BOUND('',#911,.T.);
#913=ADVANCED_FACE('',(#912),#906,.T.);
#914=CARTESIAN_POINT('',(1.500000000000000E-01,0.0,5.500000000000000E-01));
#915=DIRECTION('',(9.945218953269911E-01,-1.045284636604281E-01,0.0));
#916=DIRECTION('',(0.0,0.0,1.000000000000000E+00));
#917=AXIS2_PLACEMENT_3D('',#914,#915,#916);
#918=PLANE('',#917);
#919=ORIENTED_EDGE('',*,*,#489,.T.);
#920=ORIENTED_EDGE('',*,*,#481,.T.);
#921=ORIENTED_EDGE('',*,*,#249,.F.);
#922=ORIENTED_EDGE('',*,*,#253,.F.);
#923=EDGE_LOOP('',(#919,#920,#921,#922));
#924=FACE_OUTER_BOUND('',#923,.T.);
#925=ADVANCED_FACE('',(#924),#918,.T.);
#926=CLOSED_SHELL('',(#527,#565,#577,#589,#601,#613,#625,#637,#649,#661,#673,#685,#697,#709,#721,#733,#745,#757,#769,#781,#793,#805,#817,#829,#841,#853,#865,#877,#889,#901,#913,#925));
#927=MANIFOLD_SOLID_BREP('solidA',#926);
#928=ADVANCED_BREP_SHAPE_REPRESENTATION('solidA',(#927,#9),#5);
#929=APPLICATION_CONTEXT('managed model-based 3D engineering');
#930=APPLICATION_PROTOCOL_DEFINITION('international standard','ap242_managed_model_based_3d_engineering_mim_lf',2020,#929);
#931=PRODUCT_CONTEXT('',#929,'mechanical');
#932=PRODUCT('solidA','solidA','',(#931));
#933=PRODUCT_RELATED_PRODUCT_CATEGORY('part',$,(#932));
#934=PRODUCT_DEFINITION_FORMATION('','',#932);
#935=PRODUCT_DEFINITION_CONTEXT('part definition',#929,'design');
#936=PRODUCT_DEFINITION('','',#934,#935);
#937=PRODUCT_DEFINITION_SHAPE('','',#936);
#938=SHAPE_DEFINITION_REPRESENTATION(#937,#928);
ENDSEC;
END-ISO-10303-21;
